<svg id="Layer_1" data-name="Layer 1" xmlns="http://www.w3.org/2000/svg" viewBox="0 0 1184.506 841.25">
  <g>
    <g>
      <g>
        <rect x="889.564" y="14.842" width="222.253" height="138.484" rx="9.039" fill="#f4f4f4"></rect>
        <g opacity="0.04">
          <path d="M1102.779,14.842H898.6a9.041,9.041,0,0,0-9.042,8.994l111.127,75.838,111.127-75.838A9.039,9.039,0,0,0,1102.779,14.842Z" fill="#292a2e"></path>
        </g>
      </g>
      <g>
        <rect x="903.947" y="561.349" width="280.559" height="174.814" rx="11.41" fill="#f4f4f4"></rect>
        <g opacity="0.04">
          <path d="M1173.1,561.348H915.358A11.411,11.411,0,0,0,903.945,572.7l140.279,95.733L1184.5,572.7A11.41,11.41,0,0,0,1173.1,561.348Z" fill="#292a2e"></path>
        </g>
      </g>
      <g>
        <rect x="91.207" y="233.053" width="219.142" height="136.545" rx="8.912" fill="#f4f4f4"></rect>
        <g opacity="0.04">
          <path d="M301.437,233.053H100.12a8.914,8.914,0,0,0-8.915,8.868L200.776,316.7l109.571-74.776A8.912,8.912,0,0,0,301.437,233.053Z" fill="#292a2e"></path>
        </g>
      </g>
    </g>
    <g>
      <path d="M300.082,316.237c-2.59-1.209-5.154-2.459-7.618-3.713a1.355,1.355,0,0,0-1.23,2.415c2.491,1.269,5.082,2.531,7.7,3.755a1.356,1.356,0,0,0,1.147-2.457Z" fill="#292a2e"></path>
      <path d="M339.7,331.3l-.194-.059c-2.661-.815-5.316-1.662-7.891-2.519a1.355,1.355,0,0,0-.856,2.572c2.6.864,5.272,1.718,7.943,2.535l.212.065.065.018a1.355,1.355,0,0,0,.721-2.612Z" fill="#292a2e"></path>
      <path d="M281.293,306.465c-2.46-1.423-4.9-2.9-7.247-4.381a1.356,1.356,0,1,0-1.448,2.292c2.378,1.5,4.847,3,7.337,4.436a1.406,1.406,0,0,0,.351.142,1.356,1.356,0,0,0,1.007-2.489Z" fill="#292a2e"></path>
      <path d="M360.121,337.357q-4.137-1.2-8.181-2.388a1.331,1.331,0,0,0-1.684.916,1.357,1.357,0,0,0,.917,1.684q4.047,1.194,8.195,2.392l.049.013a1.355,1.355,0,0,0,.7-2.617Z" fill="#292a2e"></path>
      <path d="M263.533,294.972c-2.3-1.665-4.562-3.386-6.734-5.119a1.355,1.355,0,0,0-1.69,2.119c2.205,1.759,4.5,3.506,6.833,5.195a1.371,1.371,0,0,0,.467.218,1.356,1.356,0,0,0,1.124-2.413Z" fill="#292a2e"></path>
      <path d="M319.619,324.462c-2.642-1-5.3-2.047-7.891-3.115a1.355,1.355,0,0,0-1.031,2.507c2.618,1.077,5.3,2.135,7.963,3.143a1.21,1.21,0,0,0,.152.047,1.355,1.355,0,0,0,.807-2.582Z" fill="#292a2e"></path>
      <path d="M247.19,281.589c-2.075-1.928-4.1-3.917-6.03-5.912a1.355,1.355,0,1,0-1.95,1.883c1.959,2.03,4.024,4.054,6.135,6.015a1.355,1.355,0,1,0,1.845-1.986Z" fill="#292a2e"></path>
      <path d="M247.109,115.322c2.02-1.912,4.136-3.813,6.287-5.649a1.355,1.355,0,1,0-1.76-2.062c-2.186,1.866-4.336,3.8-6.391,5.743a1.355,1.355,0,1,0,1.864,1.968Z" fill="#292a2e"></path>
      <path d="M210.934,168.457c.032.011.064.02.1.028a1.354,1.354,0,0,0,1.614-.891c.867-2.629,1.857-5.282,2.944-7.884a1.355,1.355,0,0,0-2.5-1.046c-1.114,2.667-2.129,5.386-3.018,8.082A1.355,1.355,0,0,0,210.934,168.457Z" fill="#292a2e"></path>
      <path d="M208.148,188.09c.307-2.755.739-5.547,1.284-8.3a1.355,1.355,0,1,0-2.659-.527c-.56,2.83-1,5.7-1.319,8.529a1.356,1.356,0,0,0,1.016,1.465,1.2,1.2,0,0,0,.181.032A1.354,1.354,0,0,0,208.148,188.09Z" fill="#292a2e"></path>
      <path d="M225.04,139.246a1.357,1.357,0,0,0-1.874.4c-1.571,2.427-3.063,4.911-4.435,7.386a1.357,1.357,0,0,0,.529,1.843,1.435,1.435,0,0,0,.329.13,1.357,1.357,0,0,0,1.514-.659c1.341-2.421,2.8-4.852,4.337-7.227A1.356,1.356,0,0,0,225.04,139.246Z" fill="#292a2e"></path>
      <path d="M207.563,200.671a1.356,1.356,0,0,0-2.711.05c.053,2.864.234,5.764.536,8.621a1.355,1.355,0,1,0,2.695-.285C207.79,206.278,207.614,203.457,207.563,200.671Z" fill="#292a2e"></path>
      <path d="M230.923,131.07a1.331,1.331,0,0,0,.512.254,1.356,1.356,0,0,0,1.391-.473c1.721-2.167,3.552-4.339,5.444-6.454a1.356,1.356,0,0,0-2.021-1.807c-1.927,2.155-3.793,4.367-5.546,6.577A1.353,1.353,0,0,0,230.923,131.07Z" fill="#292a2e"></path>
      <path d="M217.13,241.29a1.355,1.355,0,0,0-2.459,1.141c1.194,2.569,2.514,5.15,3.924,7.674a1.356,1.356,0,0,0,2.366-1.324C219.584,246.318,218.3,243.8,217.13,241.29Z" fill="#292a2e"></path>
      <path d="M270.632,95.043a1.356,1.356,0,0,0-1.881-.37c-2.391,1.6-4.753,3.264-7.022,4.936a1.355,1.355,0,1,0,1.608,2.182c2.237-1.648,4.567-3.286,6.924-4.868A1.355,1.355,0,0,0,270.632,95.043Z" fill="#292a2e"></path>
      <path d="M232.779,266.194c-1.774-2.2-3.483-4.464-5.078-6.728a1.356,1.356,0,1,0-2.216,1.562c1.628,2.311,3.372,4.622,5.185,6.869a1.355,1.355,0,1,0,2.109-1.7Z" fill="#292a2e"></path>
      <path d="M210.21,221.475a1.355,1.355,0,0,0-2.637.628c.661,2.776,1.45,5.569,2.345,8.3a1.355,1.355,0,0,0,2.576-.844C211.622,226.9,210.854,224.178,210.21,221.475Z" fill="#292a2e"></path>
      <path d="M288.978,84.222a1.356,1.356,0,0,0-1.834-.558c-2.529,1.349-5.049,2.756-7.488,4.181a1.355,1.355,0,1,0,1.368,2.34c2.409-1.407,4.9-2.8,7.4-4.129A1.356,1.356,0,0,0,288.978,84.222Z" fill="#292a2e"></path>
      <path d="M302.68,76.092q-1.982.882-3.928,1.786a1.355,1.355,0,1,0,1.141,2.459q1.928-.9,3.889-1.768a1.356,1.356,0,0,0-1.1-2.477Z" fill="#292a2e"></path>
    </g>
    <g>
      <path d="M901.829,788.959c-2.666.517-4.155.75-4.171.753a1.355,1.355,0,1,0,.418,2.678c.062-.009,1.547-.242,4.27-.771a1.355,1.355,0,1,0-.517-2.66Z" fill="#292a2e"></path>
      <path d="M1105.1,602.464c-.231,2.809-.528,5.64-.883,8.416a1.355,1.355,0,0,0,1.014,1.487,1.219,1.219,0,0,0,.158.029,1.355,1.355,0,0,0,1.517-1.172c.36-2.816.661-5.688.9-8.537a1.356,1.356,0,0,0-2.7-.223Z" fill="#292a2e"></path>
      <path d="M1105.745,589.782a1.354,1.354,0,0,0,1.025,1.341,1.318,1.318,0,0,0,.3.04,1.354,1.354,0,0,0,1.381-1.329c.055-2.814.053-5.7-.006-8.576a1.355,1.355,0,0,0-2.71.055C1105.8,584.153,1105.8,587,1105.745,589.782Z" fill="#292a2e"></path>
      <path d="M1103.593,548.682a1.355,1.355,0,0,0,1.666-1.533c-.455-2.795-.962-5.632-1.507-8.432a1.355,1.355,0,0,0-2.66.517c.539,2.773,1.04,5.583,1.491,8.351A1.353,1.353,0,0,0,1103.593,548.682Z" fill="#292a2e"></path>
      <path d="M1053.975,714.628a1.351,1.351,0,0,0-1.916-.018c-2,1.966-4.078,3.922-6.162,5.812a1.355,1.355,0,0,0,1.821,2.008c2.11-1.913,4.21-3.894,6.239-5.886A1.354,1.354,0,0,0,1053.975,714.628Z" fill="#292a2e"></path>
      <path d="M1019.169,741.244c-2.327,1.562-4.721,3.116-7.119,4.617a1.356,1.356,0,0,0,1.44,2.3c2.421-1.517,4.84-3.087,7.19-4.665a1.355,1.355,0,1,0-1.511-2.25Z" fill="#292a2e"></path>
      <path d="M1098.394,526.8a1.356,1.356,0,1,0,2.637-.63c-.657-2.744-1.365-5.535-2.1-8.3a1.355,1.355,0,0,0-2.618.7C1097.041,521.308,1097.743,524.077,1098.394,526.8Z" fill="#292a2e"></path>
      <path d="M1081.306,478.894a1.355,1.355,0,0,0-2.25,1.512c1.577,2.349,3.082,4.75,4.473,7.137a1.355,1.355,0,1,0,2.341-1.364C1084.451,483.742,1082.916,481.292,1081.306,478.894Z" fill="#292a2e"></path>
      <path d="M1038.142,728.883a1.357,1.357,0,0,0-1.906-.2c-2.17,1.752-4.421,3.5-6.692,5.2a1.356,1.356,0,0,0,1.625,2.17c2.3-1.72,4.574-3.49,6.77-5.263A1.356,1.356,0,0,0,1038.142,728.883Z" fill="#292a2e"></path>
      <path d="M1091.787,497.616a1.355,1.355,0,0,0-2.468,1.12c1.16,2.556,2.241,5.176,3.212,7.787a1.356,1.356,0,0,0,2.541-.945C1094.079,502.908,1092.973,500.229,1091.787,497.616Z" fill="#292a2e"></path>
      <path d="M1098.525,642.974a1.355,1.355,0,0,0-1.711.863c-.881,2.671-1.837,5.347-2.844,7.954a1.356,1.356,0,0,0,.776,1.753,1.484,1.484,0,0,0,.161.05,1.355,1.355,0,0,0,1.592-.826c1.023-2.649,1.995-5.369,2.889-8.083A1.355,1.355,0,0,0,1098.525,642.974Z" fill="#292a2e"></path>
      <path d="M1104.838,623.932a1.324,1.324,0,0,0-1.065-1.593,1.355,1.355,0,0,0-1.593,1.065c-.55,2.766-1.172,5.543-1.848,8.253a1.355,1.355,0,1,0,2.629.656C1103.648,629.561,1104.28,626.741,1104.838,623.932Z" fill="#292a2e"></path>
      <path d="M1090.773,662.788a1.351,1.351,0,0,0-1.806.641c-1.2,2.526-2.485,5.062-3.818,7.537a1.355,1.355,0,1,0,2.387,1.285c1.354-2.515,2.66-5.091,3.88-7.658A1.355,1.355,0,0,0,1090.773,662.788Z" fill="#292a2e"></path>
      <path d="M1106.139,569.832a1.359,1.359,0,0,0,1.68-1.419c-.215-2.808-.487-5.679-.808-8.533a1.355,1.355,0,0,0-2.693.3c.317,2.823.586,5.661.8,8.437A1.357,1.357,0,0,0,1106.139,569.832Z" fill="#292a2e"></path>
      <path d="M1068.235,698.809a1.355,1.355,0,0,0-1.907.191c-1.771,2.165-3.623,4.328-5.5,6.428a1.355,1.355,0,1,0,2.02,1.808c1.906-2.131,3.784-4.323,5.581-6.52A1.355,1.355,0,0,0,1068.235,698.809Z" fill="#292a2e"></path>
      <path d="M1080.6,681.481a1.354,1.354,0,0,0-1.872.415c-1.5,2.35-3.085,4.711-4.716,7.015a1.356,1.356,0,1,0,2.213,1.567c1.656-2.341,3.267-4.738,4.789-7.125A1.356,1.356,0,0,0,1080.6,681.481Z" fill="#292a2e"></path>
      <path d="M922.5,784.115c-2.754.742-5.527,1.452-8.242,2.111a1.355,1.355,0,1,0,.64,2.634c2.736-.664,5.532-1.38,8.308-2.128a1.355,1.355,0,1,0-.706-2.617Z" fill="#292a2e"></path>
      <path d="M1024.233,428.938a1.356,1.356,0,0,0,1.066-2.453c-2.358-1.527-4.8-3.058-7.256-4.552a1.356,1.356,0,0,0-1.408,2.318c2.436,1.479,4.855,3,7.19,4.509A1.363,1.363,0,0,0,1024.233,428.938Z" fill="#292a2e"></path>
      <path d="M942.849,777.98c-2.667.89-5.391,1.763-8.1,2.6a1.355,1.355,0,1,0,.8,2.59c2.728-.839,5.473-1.719,8.159-2.616a1.355,1.355,0,0,0-.858-2.571Z" fill="#292a2e"></path>
      <path d="M982.265,762.149c-2.539,1.21-5.136,2.406-7.718,3.554a1.356,1.356,0,0,0,1.1,2.477c2.6-1.159,5.221-2.364,7.781-3.584a1.355,1.355,0,0,0-1.165-2.447Z" fill="#292a2e"></path>
      <path d="M1001.107,752.371c-2.435,1.375-4.943,2.745-7.452,4.068a1.355,1.355,0,0,0,1.264,2.4c2.533-1.335,5.064-2.717,7.522-4.106a1.355,1.355,0,1,0-1.334-2.359Z" fill="#292a2e"></path>
      <path d="M1072.263,470.7a1.355,1.355,0,0,0,1.383-2.166c-1.767-2.185-3.647-4.381-5.585-6.527a1.356,1.356,0,0,0-2.012,1.817c1.906,2.11,3.753,4.268,5.49,6.414A1.339,1.339,0,0,0,1072.263,470.7Z" fill="#292a2e"></path>
      <path d="M962.8,770.663c-2.591,1.04-5.258,2.072-7.927,3.068a1.356,1.356,0,0,0,.948,2.54c2.689-1,5.377-2.044,7.989-3.092a1.356,1.356,0,1,0-1.01-2.516Z" fill="#292a2e"></path>
      <path d="M1057.81,455.083a1.356,1.356,0,0,0,1.266-2.3c-2.027-1.934-4.159-3.88-6.338-5.784a1.355,1.355,0,0,0-1.783,2.042c2.149,1.877,4.251,3.795,6.249,5.7A1.352,1.352,0,0,0,1057.81,455.083Z" fill="#292a2e"></path>
      <path d="M1041.638,441.228a1.356,1.356,0,0,0,1.159-2.387c-2.214-1.713-4.528-3.436-6.876-5.121a1.356,1.356,0,1,0-1.581,2.2c2.322,1.666,4.61,3.369,6.8,5.062A1.351,1.351,0,0,0,1041.638,441.228Z" fill="#292a2e"></path>
    </g>
    <g>
      <polygon points="297.429 41.109 298.086 84.821 458.946 1.164 297.429 41.109" fill="#487E6F"></polygon>
      <polygon points="297.429 41.109 298.086 84.821 458.946 1.164 297.429 41.109" fill="#0a0a0a" opacity="0.2"></polygon>
      <polygon points="305.782 54.02 298.086 84.821 421.159 18.405 305.782 54.02" fill="#487E6F"></polygon>
      <polygon points="305.782 54.02 298.086 84.821 421.159 18.405 305.782 54.02" fill="#0a0a0a" opacity="0.1"></polygon>
      <polygon points="282.44 17.477 458.946 1.164 335.05 107.146 305.782 54.02 458.946 1.164 297.429 41.109 282.44 17.477" fill="#487E6F"></polygon>
    </g>
    <g>
      <path d="M271.96,356.965,658.093,602.651l386.132-245.686L657.96,0Z" fill="#292a2e"></path>
      <g>
        <rect x="346.787" y="52.137" width="622.612" height="680.468" fill="#fff"></rect>
        <path d="M970.4,733.606H345.787V51.137H970.4Zm-622.612-2H968.4V53.137H347.787Z" fill="#292a2e"></path>
      </g>
      <g>
        <rect x="406.702" y="113.158" width="127.732" height="127.732" fill="#fff"></rect>
        <path d="M535.433,241.89H405.7V112.157H535.433Zm-127.731-2H533.433V114.157H407.7Z" fill="#292a2e"></path>
      </g>
      <g>
        <rect x="406.702" y="290.958" width="505.165" height="2" fill="#292a2e"></rect>
        <rect x="406.702" y="338.877" width="505.165" height="2" fill="#292a2e"></rect>
        <rect x="406.702" y="386.797" width="505.165" height="2" fill="#292a2e"></rect>
        <rect x="406.702" y="434.717" width="505.165" height="2" fill="#292a2e"></rect>
        <rect x="406.702" y="482.637" width="505.165" height="2" fill="#292a2e"></rect>
        <rect x="406.702" y="530.557" width="505.165" height="2" fill="#292a2e"></rect>
      </g>
      <g>
        <polygon points="1044.225 838.156 271.96 838.156 271.96 356.965 658.093 592.651 1044.225 356.965 1044.225 838.156" fill="#487E6F"></polygon>
        <polygon points="1044.225 838.156 271.96 838.156 271.96 356.965 658.093 592.651 1044.225 356.965 1044.225 838.156" fill="#fff" opacity="0.83"></polygon>
      </g>
    </g>
    <g>
      <path d="M66.97,821.506l-2.162,13.7a6.351,6.351,0,0,1-6.212,5.36L3.525,841.1a3.486,3.486,0,0,1-1.561-6.619l33.063-16.108Z" fill="#FAA896"></path>
      <g>
        <path d="M131.389,751.673s-.372,80.818,58.113,88.3l55.061-50.393,34.137-68.09-127.775,14.1Z" fill="#262626"></path>
        <path d="M129.814,747.271l-.174.046S129.071,743.892,129.814,747.271Z" fill="#333"></path>
        <g>
          <path d="M351.392,513.2c-.011-.034-.047-.053-.069-.082l.553-1.114a3.645,3.645,0,0,0-.947-4.514,3.562,3.562,0,0,0-5.371,1.232l-1.276,2.572c-.012-.009-.014-.026-.028-.034s-.039,0-.057,0a3.556,3.556,0,0,0-1.873-4.023c-1.8-1.049-3.879.464-4.7,2.127l-7.676,14.82.229-4.8a3.7,3.7,0,0,0-3.185-3.912,3.56,3.56,0,0,0-3.916,3.372l-1.249,26.213a11.829,11.829,0,0,0,10.916,12.357h0a17.925,17.925,0,0,0,17.42-9.907S352.51,511.836,351.392,513.2Z" fill="#FAA896"></path>
          <g>
            <rect x="323.082" y="470.171" width="16.863" height="69.382" rx="4.893" transform="translate(-79.581 62.383) rotate(-9.604)" fill="#292a2e"></rect>
            <rect x="287.686" y="445.193" width="50.668" height="48.506" rx="24.253" transform="translate(-73.932 58.801) rotate(-9.604)" fill="#487E6F"></rect>
            <path d="M391.461,471.173l-4.551,2.184-5.174-30.578,4.856.17c.4,4.353.99,8.931,1.788,13.644C389.247,461.716,390.29,466.616,391.461,471.173Z" fill="#487E6F"></path>
            <path d="M404.921,453.8c1.016,6,.586,11.082-.958,11.343a1.178,1.178,0,0,1-.97-.4h0c-1.356-1.245-2.849-5.188-3.662-9.994-.755-4.464-.712-8.415,0-10.256.244-.635.565-1.018.962-1.085C401.829,443.14,403.906,447.794,404.921,453.8Z" fill="#487E6F"></path>
            <path d="M388.4,456.692c-.006-.034-.011-.066-.016-.1-3.3-19.5-.681-40.626,2.412-48.666C378.683,420.2,361.056,432.719,344.5,437.8c-6.679,2.049-14.851,3.917-27.265,6l8.2,48.478c12.409-2.114,20.74-3.039,27.722-3.3,17.3-.65,38.066,5.372,53.539,12.981-5.566-6.575-14.991-25.669-18.289-45.164Z" fill="#487E6F"></path>
            <rect x="310.35" y="440.243" width="29.614" height="54.1" rx="1.779" transform="translate(-73.403 60.796) rotate(-9.604)" fill="#292a2e"></rect>
            <rect x="310.35" y="440.243" width="29.614" height="54.1" rx="1.779" transform="translate(-73.403 60.796) rotate(-9.604)" fill="#fff" opacity="0.1"></rect>
            <path d="M412.814,452.457c4.437,26.223,2.558,48.4-4.185,49.541-1.344.228-2.776-.394-4.239-1.749-.008,0-.009-.006-.016,0-5.924-5.439-12.443-22.66-16-43.652-3.3-19.5-3.108-36.752-.015-44.793,1.062-2.771,2.468-4.447,4.2-4.74C399.308,405.918,408.378,426.243,412.814,452.457Z" fill="#487E6F"></path>
            <path d="M412.814,452.457c4.437,26.223,2.558,48.4-4.185,49.541-1.344.228-2.776-.394-4.239-1.749-.008,0-.009-.006-.016,0-5.924-5.439-12.443-22.66-16-43.652-3.3-19.5-3.108-36.752-.015-44.793,1.062-2.771,2.468-4.447,4.2-4.74C399.308,405.918,408.378,426.243,412.814,452.457Z" fill="#0c0c0c" opacity="0.3"></path>
            <path d="M400.29,443.43l3.678,21.738-12.507,6c-1.171-4.557-2.214-9.457-3.081-14.58-.8-4.713-1.391-9.291-1.788-13.644Z" fill="#fff" opacity="0.6"></path>
            <path d="M404.921,453.8c1.016,6,.586,11.082-.958,11.343a1.178,1.178,0,0,1-.97-.4h0c-1.356-1.245-2.849-5.188-3.662-9.994-.755-4.464-.712-8.415,0-10.256.244-.635.565-1.018.962-1.085C401.829,443.14,403.906,447.794,404.921,453.8Z" fill="#fff"></path>
          </g>
          <path d="M331.471,522.559a3.551,3.551,0,0,1,3.516-2.119.273.273,0,0,1,.314-.323l-2.555-1.625a3.692,3.692,0,0,1-1.477-4.622,3.555,3.555,0,0,1,4.4-1.838c-.008-.035.014-.07.017-.105l-1.05-.668a3.647,3.647,0,0,1-1.526-4.353,3.563,3.563,0,0,1,5.234-1.725l2.422,1.54c.006-.014,0-.029.007-.043s.034-.019.046-.034a3.557,3.557,0,0,1-.48-4.412c1-1.83,3.56-1.61,5.126-.614l4.691,3.52a5.492,5.492,0,0,1,2.184,4.705c-.443,7.819-2.088,28.214-7.087,25.036l-12.308-7.825A3.812,3.812,0,0,1,331.471,522.559Z" fill="#FAA896"></path>
        </g>
        <path d="M312.379,537.921l-16.311,88.262-41.694-64.258-31.853,37.421,66.433,90.742.564.525a27.232,27.232,0,0,0,44.476-12.557l27.361-132.279Z" fill="#487E6F"></path>
        <path d="M293.806,634.865a.482.482,0,0,1-.134-.019.5.5,0,0,1-.348-.614l2.262-8.182a.5.5,0,0,1,.964.266l-2.263,8.181A.5.5,0,0,1,293.806,634.865Z" fill="#0c0c0c"></path>
        <g>
          <g>
            <path d="M112.7,488.571s.55,23.632-3.967,32.63c-13.006,25.906-14.929,53.9,1.6,66.953s113.735,4.5,118.111-29.332c3.684-28.482-9.887-30.286-15.2-53.03-2.4-10.292-8.4-31.785-8.4-31.785" fill="#0a0a0a"></path>
            <path id="sk" d="M206.059,551.4c-.169.012,4.225,30.769-31.612,35.353-24.81,3.177-38.835-20.962-39.4-20.847,2.52-1.1,6.673-2.987,7.832-3.688,4.385-2.651,7.743-5.982,7.452-13.708-.167-4.453-5.9-26.236-6.414-30.67l39.222.685c1.362,9.31,2.065,31.395,15.695,32.537C201.106,551.246,203.528,551.348,206.059,551.4Z" fill="#FAA896"></path>
            <path id="sh" d="M188.914,544.009a27.76,27.76,0,0,1-2.321-5.59,63.408,63.408,0,0,1-2.529-13.59A41.977,41.977,0,0,1,161.473,520c-.169,2.715-1.7,14.738-.135,16.966C164.29,541.171,175.26,546.807,188.914,544.009Z" fill="#0c0c0c" opacity="1"></path>
            <path d="M180.851,537.78c-14.9,2.808-34.9-1.454-40.728-21.112l-5.263-17.737c-5.832-19.658-.235-38.657,18.274-44.148h0c18.509-5.491,37.071,6.34,42.9,26l2.33,7.853C200.605,496.176,207.441,532.77,180.851,537.78Z" fill="#FAA896"></path>
            <path d="M183.994,509.382l.036-.01a21.077,21.077,0,0,0,2.205-.806c1.073-.47,2.467-1.209,2.175-2.191-.331-1.121-6.985-12.3-7.743-13.566a.487.487,0,1,0-.837.5c2.837,4.759,7.423,12.59,7.646,13.344-.089.369-1.862,1.234-3.723,1.786a.488.488,0,0,0,.241.944Z" fill="#0c0c0c" opacity="1"></path>
            <path d="M182.079,518.32a19.924,19.924,0,0,0,8.256-4.136.487.487,0,1,0-.612-.758c-5.188,4.184-10.649,5.331-15.792,3.317a3.207,3.207,0,0,0-.319-.114.487.487,0,0,0-.237.945c.04.012.107.04.2.077A14.6,14.6,0,0,0,182.079,518.32Z" fill="#0c0c0c" opacity="1"></path>
            <path d="M120.4,506.77l16.6-4.823c12.285-6.488,13.9-29.062,13.9-29.062s17.1,13.586,53.942,1.122c0,0-12.912-51.827-67.074-30.866-17.464,6.759-28.517,26.175-24.449,50.208C116.179,510.191,120.4,506.77,120.4,506.77Z" fill="#0a0a0a"></path>
            <path d="M143.049,522.316c-5.625,1.669-11.97-3-13.639-8.621s1.971-10.079,7.6-11.748l4.016,2.909,6.863,16.025Z" fill="#FAA896"></path>
            <path d="M183.148,482.872a11.151,11.151,0,0,1,5.416-2.336,9.821,9.821,0,0,1,2.94.012,11.649,11.649,0,0,1,2.8.793.509.509,0,0,1-.347.957l-.038-.013a10.551,10.551,0,0,0-2.56-.6,8.65,8.65,0,0,0-2.595.108,9.787,9.787,0,0,0-4.587,2.2l-.042.038a.765.765,0,1,1-1.018-1.141Z" fill="#0c0c0c"></path>
            <path d="M169.056,488.177a9.781,9.781,0,0,0-5.05.631,8.668,8.668,0,0,0-2.24,1.315,10.532,10.532,0,0,0-1.827,1.891l-.024.03a.509.509,0,0,1-.81-.615,11.594,11.594,0,0,1,1.927-2.186,9.847,9.847,0,0,1,2.465-1.6,11.155,11.155,0,0,1,5.818-.97.765.765,0,0,1-.168,1.52l-.032,0Z" fill="#0c0c0c"></path>
            <path d="M183.2,522.8a9.958,9.958,0,0,0,1.614-.5.487.487,0,1,0-.363-.9c-3.148,1.263-5.119.214-5.2.169a.487.487,0,0,0-.476.85A6.609,6.609,0,0,0,183.2,522.8Z" fill="#0c0c0c" opacity="1"></path>
            <path d="M137.021,501.729l-.216-.451C157.467,491.4,150.077,470.9,150,470.7l.468-.176C150.547,470.731,158.092,491.655,137.021,501.729Z" fill="#0c0c0c"></path>
            <ellipse cx="168.246" cy="509.154" rx="4.53" ry="3.323" transform="translate(-101.771 45.866) rotate(-11.949)" fill="#0c0c0c" opacity="0.1"></ellipse>
            <path d="M194.422,502.8c.385,1.792,2.676,2.826,5.124,2.312a6.314,6.314,0,0,0,1.231-.4c-.08-2.171-.26-4.25-.5-6.169a5.7,5.7,0,0,0-2.114.066C195.719,499.122,194.043,501,194.422,502.8Z" fill="#0c0c0c" opacity="0.1"></path>
            <circle cx="193.431" cy="486.608" r="2.378" fill="#0c0c0c"></circle>
            <circle cx="169.995" cy="493.06" r="2.378" fill="#0c0c0c"></circle>
          </g>
          <path d="M263.618,609.3c1.564,13.288,12.854,95.881,15.082,112.187L131.389,751.673c-3.806-14.339-20.544-77.019-29.514-104.746-8.56-26.458-16.65-39.918-14.577-52.759,2.421-14.99,22.213-20.992,35.037-25.48,7.831-2.741,19.785-6,19.785-6s5.278,20.539,29.972,16.682c33.615-5.252,26.581-28.271,26.746-28.305,5.394-1.1,32.3-2.934,40.754-.01C262.626,559.005,260.306,581.137,263.618,609.3Z" fill="#487E6F"></path>
        </g>
        <rect x="267.973" y="617.662" width="1" height="51.833" transform="matrix(0.99, -0.144, 0.144, 0.99, -90.115, 45.51)" fill="#0c0c0c"></rect>
        <path d="M74.715,830.169l-48.17-13.406C48.83,736.686,85.009,604.984,87.218,592.474a20.389,20.389,0,0,0-.238,3.579l49.995-.707c.07,4.925.112,7.9-31.521,123.452C90.266,774.278,74.868,829.616,74.715,830.169Z" fill="#487E6F"></path>
        <rect x="95.978" y="665.823" width="46.59" height="1" transform="translate(-557.063 638.354) rotate(-77.483)" fill="#0c0c0c"></rect>
        <path d="M231.157,734.964s131.352-67.859,167.736-80.41c9.424-3.251,26.645-6.244,41.408,2.387,44.035,25.747,160.322,130.587,160.322,130.587L572.374,829.74,418.755,719.724S345.148,772.236,278.7,795.333l-67.072-7.925Z" fill="#262626"></path>
        <path d="M617.891,799.739s23.527-3.824,25.476-25.689,19.259-16.6,19.259-16.6l-2.467,83.7L618.34,839.92Z" fill="#487E6F"></path>
        <path d="M189.5,839.969s-7.025-.47,8.926.056c59.5,1.96,433.1.98,433.1.98l.189-56.044L189.627,753.593Z" fill="#262626"></path>
        <path d="M348.422,765.173a.444.444,0,0,1-.063,0l-43.575-5.492a.5.5,0,0,1-.434-.559.492.492,0,0,1,.559-.433l43.575,5.492a.5.5,0,0,1-.062,1Z" fill="#fff"></path>
        <path d="M596.8,782.6h-.036l-104.7-7.418a.5.5,0,0,1,.07-1l104.7,7.418a.5.5,0,0,1-.034,1Z" fill="#fff"></path>
      </g>
    </g>
  </g>
</svg>