<?xml version="1.0" encoding="UTF-8"?>
<!DOCTYPE svg PUBLIC "-//W3C//DTD SVG 1.1//EN" "http://www.w3.org/Graphics/SVG/1.1/DTD/svg11.dtd">
<!-- Creator: CorelDRAW 2020 (64-Bit) -->
<svg xmlns="http://www.w3.org/2000/svg" xml:space="preserve" width="279.6mm" height="216.1mm" version="1.1" style="shape-rendering:geometricPrecision; text-rendering:geometricPrecision; image-rendering:optimizeQuality; fill-rule:evenodd; clip-rule:evenodd"
viewBox="0 0 27960 21610"
 xmlns:xlink="http://www.w3.org/1999/xlink"
 xmlns:xodm="http://www.corel.com/coreldraw/odm/2003">
 <defs>
  <style type="text/css">
   <![CDATA[
    .str0 {stroke:#373435;stroke-width:20;stroke-miterlimit:22.9256}
    .fil0 {fill:none}
    .fil1 {fill:#FEFEFE}
    .fil2 {fill:#3C7661}
    .fil6 {fill:#3C7661}
    .fil4 {fill:#3C7661;fill-rule:nonzero}
    .fil5 {fill:#3C7661;fill-rule:nonzero}
    .fil3 {fill:#A5A339;fill-rule:nonzero}
   ]]>
  </style>
   <clipPath id="id0">
    <path d="M10 10l27940 0 0 21590 -27940 0 0 -21590z"/>
   </clipPath>
 </defs>
 <g id="Capa_x0020_1">
  <metadata id="CorelCorpID_0Corel-Layer"/>
  <rect class="fil0 str0" x="10" y="10" width="27940" height="21590"/>
  <polygon class="fil1" points="10,10 27950,10 27950,21600 10,21600 "/>
  <g style="clip-path:url(#id0)">
   <g id="_2118818239472">
    <rect class="fil0 str0" x="-16685.43" y="3843.02" width="1308.78" height="1308.78"/>
   </g>
  </g>
  <polygon class="fil0" points="10,10 27950,10 27950,21600 10,21600 "/>
  <g id="_2118818239568">
   <path class="fil2" d="M5847.24 11782.49l1847.88 0 0 274.66 -1595.62 0c-252.26,0 -252.26,-225.79 -252.26,-274.66z"/>
   <polygon class="fil2" points="8537.2,12057.11 22126.85,12057.11 22126.85,11782.49 8537.2,11782.49 "/>
   <g>
    <path class="fil2" d="M6479.76 7677.36c460.89,-1100.85 1126.34,-1557.46 2116.91,-1650.47l6.04 0c-760,470.93 -1208.2,1085.3 -1462.96,1788.67 -219.98,-29.11 -440.02,-70.36 -659.99,-138.2z"/>
    <path class="fil2" d="M5833.15 7379.14c275.61,-562.79 697.86,-993.78 1297.18,-1265.67 -402.74,436.45 -601.23,965.06 -659.96,1556.61 -221.92,-78.81 -435.59,-173.4 -637.22,-290.94z"/>
    <path class="fil2" d="M7972.36 6811.78c776.32,-923.78 2146.82,4.84 1448.95,1061.97 -199.79,-761.35 -682.81,-1115.32 -1448.95,-1061.97z"/>
    <path class="fil2" d="M7966.56 9054.05l1.05 3958.87c0,43.4 6.84,128.25 74.68,186.88 38.69,33.45 89.86,53.99 140.92,53.99l69.64 0 0 -6298.88c0,-154.8 -1136.26,799.22 -286.29,2099.14z"/>
   </g>
   <g>
    <path class="fil3" d="M10546.8 10995.89c-237.83,127.03 -450.74,190.78 -820.19,190.78 -613.7,0 -902.97,-398.17 -920.44,-809.04l0 -1401.1 359.56 0 0 1432.66c0,269.93 308.6,451.96 575.49,451.96 146.6,0 356.12,-73.54 447.27,-127l0 -1757.62 358.31 0 0 2019.36z"/>
    <path class="fil3" d="M13870.8 11135.69c-47.46,20.64 -108.73,30.99 -183.67,30.99 -136.28,0 -243.26,-36.04 -321.19,-108.14 -77.68,-72.24 -116.82,-172.92 -116.82,-302.28l0 -921.16 -177.62 0 0 -258.15 177.62 0 0 -493.25 364.07 -109.61 0 602.86 257.61 0 0 258.15 -257.61 0 0 904.07c0,131.53 57.54,197 172.58,197 23.33,0 51.72,-4.69 84.99,-14.18l0.04 213.7z"/>
    <path class="fil3" d="M21327.98 11186.63l0 -227.09 0.85 0.04c146.39,0 261.16,-52.65 344.05,-157.71 83.07,-105.33 124.44,-249.06 124.44,-431.18 0,-388.29 -155.98,-581.9 -468.49,-581.9l-0.85 0 0 -226.57 0.85 -0.04c253.39,0 449.42,71.47 588.97,214.12 133.47,136.43 203.22,323.72 209.05,561.64l0 64.99c-5.89,237.27 -77.46,425.61 -214.11,565.12 -142.53,145.48 -337.26,218.58 -583.91,218.58l-0.85 0zm-769.93 -1468.23l-9.88 12.5 0 -19.24c3.41,2.2 6.71,4.49 9.88,6.74zm-9.88 1286.56l19.48 36.97c-6.46,3.66 -12.93,7.25 -19.48,10.81l0 -47.78zm779.81 -1442.74c-238.93,0.16 -432.41,74.64 -578.56,222.58 -103.28,104.58 -170.48,232.19 -201.25,382.94l0 415.94c29.73,152.06 93.65,279.35 191.69,381.87 140.62,147.07 336.84,220.93 588.12,221.08l0 -227.09c-312.49,-0.35 -469.32,-196.46 -469.32,-588.85 0,-181.17 42.71,-324.11 127.81,-427.2 85.18,-103.14 198.88,-154.52 341.51,-154.7l0 -226.57zm-779.81 168.68l-145.53 183.63c-31.51,-28.47 -88.01,-55.26 -168.89,-80.32 -81.09,-25.15 -160.52,-38.44 -238.22,-38.44 -170.59,0 -305.83,53.01 -405.95,158.69 -100.14,105.72 -150.34,251.02 -150.34,435.16 0,183.17 51.58,322.73 153.71,418.73 102.09,95.95 243.81,144.22 425.66,144.22 140.79,0 282.69,-48.43 425.7,-144.73l103.86 197.12 0 47.78c-164.87,89.11 -366.72,133.89 -605.53,133.89 -241.01,0 -440,-71.79 -597.44,-215.1 -157.14,-142.97 -235.95,-337.36 -235.95,-581.91 0,-249.51 81.66,-449.85 244.96,-600.83 163.62,-151.27 387.4,-226.61 670.6,-226.61 91.79,0 190.53,16.8 297.34,50.93 99.73,31.93 175.22,64.93 226.02,98.55l0 19.24zm0 436.84c-12.96,63.53 -19.45,131.18 -19.45,202.95 0,75.72 6.49,146.7 19.45,212.99l0 -415.94z"/>
    <path class="fil3" d="M12122.38 11166.69l-364.57 0 0 -1106.39c0,-173.89 -97.2,-260.83 -291.6,-260.83 -92.04,0 -176.07,14.65 -252.17,43.44l0 1323.78 -364.58 0 0 -1476.58c165.7,-75.26 376.6,-113.04 632.12,-113.04 225.4,0 392.23,48.38 500.18,144.89 93.84,80.88 140.62,191.95 140.62,332.95l0 1111.78z"/>
    <path class="fil3" d="M15021.24 9578.54l-72.32 258.33c-54,-17.37 -110.29,-26.07 -168.51,-26.07 -70.03,0 -128.28,12.62 -174.39,37.73l0 1318.15 -365.69 0 0 -1477.97c178.32,-83.04 438.52,-119.82 780.91,-110.17z"/>
    <path class="fil3" d="M17561.26 9580.96c191.95,16.37 344.67,83.82 458.18,202.49 131.8,137.72 197.41,329.76 197.41,576.41 0,248.44 -65.61,446.3 -197.41,593.54 -117.23,129.9 -270.11,200.06 -458.18,210.6l0 -213.76c195.51,-55.11 293.19,-245.33 293.19,-570.68 0,-331.12 -97.79,-520.22 -293.19,-567.11l0 -231.49zm-657.19 107.99c139.38,-74.45 326.77,-111.9 562.17,-111.9 32.69,0 64.37,1.29 95.02,3.91l0 231.49c-32.24,-7.73 -67.08,-11.6 -104.61,-11.6 -87.77,0 -150.79,11.56 -188.55,34.45l0 1111.68c47.92,13.49 101.74,20.14 161.4,20.14 48.02,0 91.91,-5.64 131.76,-16.88l0 213.76c-16.62,0.91 -33.5,1.38 -50.7,1.38 -93.88,0 -174.66,-9.21 -242.46,-27.94l0.83 541.14c-57.76,27.61 -359.96,5.1 -360.42,-194.87l-4.44 -1794.76z"/>
    <polygon class="fil3" points="12788.39,11166.68 12788.39,11166.68 12423.45,11166.68 12423.45,9571.7 12788.39,9571.7 "/>
    <path class="fil3" d="M12605.92 8993.46c100.75,0 182.43,77.63 182.43,173.35 0,95.72 -81.68,173.34 -182.43,173.34 -100.74,0 -182.43,-77.62 -182.43,-173.34 0,-95.72 81.69,-173.35 182.43,-173.35z"/>
    <polygon class="fil3" points="18846.78,11166.68 18846.78,11166.68 18481.84,11166.68 18481.84,9577.03 18846.78,9577.03 "/>
    <path class="fil3" d="M18664.33 8982.77c100.74,0 182.43,78.36 182.43,174.95 0,96.57 -81.69,174.91 -182.43,174.91 -100.76,0 -182.47,-78.34 -182.47,-174.91 0,-96.59 81.71,-174.95 182.47,-174.95z"/>
    <path class="fil3" d="M15867.14 9576.64l0.85 0c246.14,0 436.59,69.85 572.25,209.58 135.65,139.68 203.47,333.62 203.47,581.78 0,247.18 -69.45,442.11 -208.41,584.72 -138.43,142.67 -327.68,213.97 -567.31,213.97l-0.85 0 0 -222.24 0.85 0c142.22,0 253.79,-51.31 334.23,-154.4 81.01,-103.06 120.91,-243.75 120.91,-422.05 0,-380.04 -151.53,-569.6 -455.14,-569.6l-0.85 0 0 -221.76zm-776.61 791.36c0,-236.9 71.69,-427.92 214.48,-573.51 142.1,-144.9 330.02,-217.66 562.13,-217.85l0 221.76c-138.58,0.24 -248.82,50.54 -331.79,151.43 -82.64,101.11 -124.2,240.85 -124.2,418.17 0,384.12 152.36,576.06 455.99,576.45l0 222.24c-244.15,-0.15 -434.81,-72.44 -571.43,-216.39 -136.74,-144.12 -205.18,-338.02 -205.18,-582.3z"/>
    <path class="fil3" d="M15836.99 9133.58l-269.96 333.16c375.91,0.64 718.47,-230.27 930.83,-492.42l-301.53 0c-191.91,0 -284.86,67.33 -359.34,159.26z"/>
   </g>
   <g>
    <path class="fil4" d="M12224.69 15465.27m111.43 0l-111.43 -457.25 58.92 0 89.66 392.56 1.28 0 89.65 -392.56 58.93 0 -115.29 457.25 -71.72 0z"/>
    <path class="fil4" d="M12609.55 15465.27m0 0l0 -343.27 53.8 0 0 343.27 -53.8 0zm0 -395.78l0 -61.47 53.8 0 0 61.47 -53.8 0z"/>
    <path class="fil4" d="M12774.12 15465.27m119.11 -306.13c-23.7,0 -40.35,12.17 -49.95,36.52 -8.33,21.12 -12.82,53.79 -12.82,97.98 0,83.89 20.5,125.52 62.13,125.52 26.89,0 46.11,-12.17 57,-36.5 8.33,-19.22 12.81,-48.67 12.81,-89.02 0,-89.66 -23.06,-134.5 -69.17,-134.5zm119.75 -37.14l0 321.49c0,92.86 -39.06,139.62 -116.55,139.62 -69.17,0 -106.95,-28.83 -112.72,-85.83l53.8 0c2.56,28.83 21.14,43.55 55.08,43.55 30.09,0 49.95,-9.59 59.56,-29.45 4.48,-9.61 7.05,-25.61 7.05,-47.39l0 -44.83 -1.28 0c-5.77,14.09 -15.38,24.97 -29.47,33.3 -14.72,8.32 -30.74,12.81 -48.03,12.81 -42.91,0 -73,-23.06 -90.3,-68.53 -10.89,-27.54 -16,-62.11 -16,-103.1 0,-120.4 37.14,-180.61 112.06,-180.61 17.94,0 33.94,5.13 48.67,16.02 13.46,10.25 21.78,22.42 25.63,36.5l1.28 0 0 -43.55 51.22 0z"/>
    <path class="fil4" d="M13135.27 15465.27m0 0l0 -343.27 53.79 0 0 343.27 -53.79 0zm0 -395.78l0 -61.47 53.79 0 0 61.47 -53.79 0z"/>
    <path class="fil4" d="M13315.21 15465.27m0 0l0 -457.25 53.79 0 0 457.25 -53.79 0z"/>
    <path class="fil4" d="M13475.3 15465.27m62.11 -239.52l-53.79 0c0,-39.06 8.96,-67.89 27.54,-85.81 17.93,-17.94 47.39,-26.91 87.74,-26.91 45.47,0 75.56,12.17 91.58,35.88 8.32,13.44 12.81,33.93 12.81,62.75l0 192.12c0,18.58 5.76,27.55 16.64,27.55 5.76,0 9.61,-1.28 12.81,-3.84l0 39.06c-12.81,1.92 -23.05,3.2 -31.37,3.2 -14.74,0 -24.99,-1.92 -30.75,-5.76 -10.88,-6.41 -16.65,-19.22 -17.93,-39.07l-1.28 0c-8.33,14.74 -20.5,26.89 -35.22,35.86 -15.37,8.97 -31.39,13.46 -47.39,13.46 -62.12,0 -93.5,-33.3 -93.5,-99.91 0,-50.59 21.77,-81.97 64.68,-94.78l72.37 -21.78c17.92,-5.75 29.45,-12.16 33.94,-19.85 3.2,-5.12 5.12,-16.01 5.12,-32.03 0,-33.94 -18.57,-50.58 -55.08,-50.58 -39.06,0 -58.92,22.41 -58.92,67.24l0 3.2zm112.08 140.25l0 -87.73c-7.69,8.32 -22.42,15.37 -44.19,22.4 -25.62,7.69 -41.62,14.1 -47.39,17.94 -17.29,10.25 -26.26,28.19 -26.26,53.8 0,39.06 16.01,58.92 48.67,58.92 17.94,0 33.95,-6.41 48.03,-19.22 14.09,-13.45 21.14,-28.17 21.14,-46.11z"/>
    <path class="fil4" d="M13813.42 15465.27m56.34 -171.63c0,44.19 4.49,76.85 12.81,97.99 9.61,24.32 26.25,36.5 49.96,36.5 27.53,0 46.11,-12.82 57,-37.79 8.32,-19.85 12.17,-52.51 12.17,-96.7 0,-89.66 -23.06,-134.5 -69.17,-134.5 -23.71,0 -40.35,12.17 -49.96,36.52 -8.32,21.12 -12.81,53.79 -12.81,97.98zm182.52 -285.62l0 457.25 -51.22 0 0 -42.27 -2.57 0c-3.84,13.45 -12.17,25.61 -25.62,35.22 -14.09,10.89 -30.09,16.02 -48.03,16.02 -74.28,0 -111.42,-60.21 -111.42,-180.6 0,-120.4 36.5,-180.61 108.86,-180.61 16.01,0 31.39,4.49 45.47,12.81 14.73,8.97 24.98,20.5 30.74,35.22l0 0 0 -153.04 53.79 0z"/>
    <path class="fil4" d="M14154.72 15465.27m62.11 -239.52l-53.8 0c0,-39.06 8.97,-67.89 27.55,-85.81 17.92,-17.94 47.39,-26.91 87.73,-26.91 45.47,0 75.57,12.17 91.58,35.88 8.33,13.44 12.81,33.93 12.81,62.75l0 192.12c0,18.58 5.77,27.55 16.65,27.55 5.76,0 9.61,-1.28 12.81,-3.84l0 39.06c-12.81,1.92 -23.05,3.2 -31.38,3.2 -14.73,0 -24.98,-1.92 -30.75,-5.76 -10.87,-6.41 -16.64,-19.22 -17.92,-39.07l-1.28 0c-8.33,14.74 -20.5,26.89 -35.22,35.86 -15.37,8.97 -31.39,13.46 -47.39,13.46 -62.12,0 -93.5,-33.3 -93.5,-99.91 0,-50.59 21.77,-81.97 64.67,-94.78l72.38 -21.78c17.92,-5.75 29.45,-12.16 33.94,-19.85 3.2,-5.12 5.12,-16.01 5.12,-32.03 0,-33.94 -18.58,-50.58 -55.08,-50.58 -39.06,0 -58.92,22.41 -58.92,67.24l0 3.2zm112.08 140.25l0 -87.73c-7.69,8.32 -22.42,15.37 -44.19,22.4 -25.62,7.69 -41.62,14.1 -47.39,17.94 -17.3,10.25 -26.26,28.19 -26.26,53.8 0,39.06 16.01,58.92 48.67,58.92 17.93,0 33.95,-6.41 48.03,-19.22 14.09,-13.45 21.14,-28.17 21.14,-46.11z"/>
    <path class="fil4" d="M14661.87 15465.27m0 0l0 -457.25 94.78 0 91.58 362.47 1.28 0 91.58 -362.47 94.78 0 0 457.25 -56.36 0 0 -399.63 0 0 -101.81 399.63 -57 0 -102.47 -399.63 0 0 0 399.63 -56.36 0z"/>
    <path class="fil4" d="M15161.99 15465.27m0 0l0 -343.27 53.79 0 0 343.27 -53.79 0zm0 -395.78l0 -61.47 53.79 0 0 61.47 -53.79 0z"/>
    <path class="fil4" d="M15338.73 15465.27m0 0l0 -343.27 51.23 0 0 40.35 1.28 0c7.05,-15.37 18.58,-27.54 34.58,-36.51 14.73,-8.32 31.39,-12.81 48.67,-12.81 39.08,0 65.33,12.81 78.78,39.08 7.69,14.72 11.52,38.42 11.52,69.8l0 243.36 -53.78 0 0 -236.96c0,-46.11 -16.66,-69.17 -50.6,-69.17 -17.29,0 -32.03,5.13 -44.83,16.02 -15.37,12.81 -23.06,30.73 -23.06,53.15l0 236.96 -53.79 0z"/>
    <path class="fil4" d="M15686.45 15465.27m0 0l0 -457.25 236.31 0 0 49.95 -179.95 0 0 143.45 169.7 0 0 49.96 -169.7 0 0 163.93 187.64 0 0 49.96 -244 0z"/>
    <path class="fil4" d="M16018.16 15465.27m56.34 -171.63c0,44.19 4.49,76.85 12.81,97.99 9.61,24.32 26.25,36.5 49.96,36.5 27.53,0 46.11,-12.82 57,-37.79 8.32,-19.85 12.17,-52.51 12.17,-96.7 0,-89.66 -23.06,-134.5 -69.17,-134.5 -23.71,0 -40.35,12.17 -49.96,36.52 -8.32,21.12 -12.81,53.79 -12.81,97.98zm182.52 -285.62l0 457.25 -51.22 0 0 -42.27 -2.56 0c-3.85,13.45 -12.18,25.61 -25.63,35.22 -14.09,10.89 -30.09,16.02 -48.03,16.02 -74.28,0 -111.42,-60.21 -111.42,-180.6 0,-120.4 36.5,-180.61 108.86,-180.61 16.01,0 31.39,4.49 45.47,12.81 14.73,8.97 24.98,20.5 30.75,35.22l0 0 0 -153.04 53.78 0z"/>
    <path class="fil4" d="M16376.1 15465.27m226.07 -343.27l0 343.27 -51.23 0 0 -40.35 -1.28 0c-7.04,15.38 -17.93,27.54 -33.31,35.86 -16,8.97 -32.65,13.46 -49.95,13.46 -39.06,0 -65.31,-12.82 -78.77,-39.07 -7.68,-14.73 -11.53,-38.43 -11.53,-69.81l0 -243.36 53.8 0 0 236.96c0,46.1 16.65,69.17 50.59,69.17 17.3,0 32.02,-5.13 44.83,-16.02 15.37,-12.81 23.06,-30.73 23.06,-53.15l0 -236.96 53.79 0z"/>
    <path class="fil4" d="M16707.17 15465.27m231.83 -238.88l-53.8 0c0,-19.22 -3.84,-35.22 -11.53,-48.03 -9.61,-15.37 -24.33,-23.05 -42.91,-23.05 -20.5,0 -35.86,7.68 -46.11,23.69 -14.09,22.42 -21.14,61.49 -21.14,118.48 0,37.15 2.57,65.32 8.33,83.9 9.61,33.93 28.83,50.59 57,50.59 37.78,0 56.36,-28.83 56.36,-85.81l53.8 0c0,32.65 -8.33,60.83 -24.34,84.53 -19.85,28.81 -49.32,43.55 -88.38,43.55 -41.63,0 -71.72,-14.74 -90.94,-44.19 -18.58,-28.19 -28.17,-72.38 -28.17,-131.92 0,-123.61 40.98,-185.1 122.31,-185.1 40.99,0 71.08,14.1 89.66,41.64 13.45,19.85 19.86,43.55 19.86,71.72z"/>
    <path class="fil4" d="M17027.36 15465.27m62.11 -239.52l-53.8 0c0,-39.06 8.97,-67.89 27.55,-85.81 17.92,-17.94 47.39,-26.91 87.73,-26.91 45.47,0 75.57,12.17 91.58,35.88 8.33,13.44 12.82,33.93 12.82,62.75l0 192.12c0,18.58 5.76,27.55 16.64,27.55 5.76,0 9.61,-1.28 12.81,-3.84l0 39.06c-12.81,1.92 -23.05,3.2 -31.38,3.2 -14.73,0 -24.98,-1.92 -30.75,-5.76 -10.87,-6.41 -16.64,-19.22 -17.92,-39.07l-1.28 0c-8.33,14.74 -20.5,26.89 -35.22,35.86 -15.37,8.97 -31.39,13.46 -47.39,13.46 -62.12,0 -93.5,-33.3 -93.5,-99.91 0,-50.59 21.77,-81.97 64.67,-94.78l72.38 -21.78c17.92,-5.75 29.45,-12.16 33.94,-19.85 3.2,-5.12 5.12,-16.01 5.12,-32.03 0,-33.94 -18.58,-50.58 -55.08,-50.58 -39.06,0 -58.92,22.41 -58.92,67.24l0 3.2zm112.08 140.25l0 -87.73c-7.69,8.32 -22.42,15.37 -44.19,22.4 -25.62,7.69 -41.62,14.1 -47.39,17.94 -17.3,10.25 -26.26,28.19 -26.26,53.8 0,39.06 16.01,58.92 48.67,58.92 17.93,0 33.95,-6.41 48.03,-19.22 14.09,-13.45 21.14,-28.17 21.14,-46.11z"/>
    <path class="fil4" d="M17362.91 15465.27m231.83 -238.88l-53.8 0c0,-19.22 -3.84,-35.22 -11.53,-48.03 -9.61,-15.37 -24.33,-23.05 -42.9,-23.05 -20.5,0 -35.86,7.68 -46.11,23.69 -14.1,22.42 -21.14,61.49 -21.14,118.48 0,37.15 2.56,65.32 8.32,83.9 9.61,33.93 28.83,50.59 57,50.59 37.79,0 56.36,-28.83 56.36,-85.81l53.8 0c0,32.65 -8.33,60.83 -24.34,84.53 -19.85,28.81 -49.31,43.55 -88.38,43.55 -41.62,0 -71.72,-14.74 -90.94,-44.19 -18.57,-28.19 -28.17,-72.38 -28.17,-131.92 0,-123.61 40.99,-185.1 122.32,-185.1 40.98,0 71.07,14.1 89.65,41.64 13.45,19.85 19.86,43.55 19.86,71.72z"/>
    <path class="fil4" d="M17702.93 15465.27m0 0l0 -343.27 53.8 0 0 343.27 -53.8 0zm0 -395.78l0 -61.47 53.8 0 0 61.47 -53.8 0z"/>
    <path class="fil4" d="M17863.03 15465.27m0 -171.63c0,-120.4 40.98,-180.61 123.59,-180.61 82.61,0 123.6,60.21 123.6,180.61 0,120.39 -40.99,180.6 -123.6,180.6 -82.61,0 -123.59,-60.21 -123.59,-180.6zm122.31 138.33c45.47,0 68.53,-46.11 68.53,-138.33 0,-42.91 -4.48,-75.58 -12.81,-97.34 -10.89,-27.55 -29.47,-40.99 -55.72,-40.99 -44.18,0 -65.97,46.11 -65.97,138.33 0,92.22 21.79,138.33 65.97,138.33zm-30.73 -357.36l44.83 -90.94 62.75 0 -69.16 90.94 -38.42 0z"/>
    <path class="fil4" d="M18213.3 15465.27m0 0l0 -343.27 51.24 0 0 40.35 1.28 0c7.04,-15.37 18.57,-27.54 34.58,-36.51 14.73,-8.32 31.38,-12.81 48.67,-12.81 39.07,0 65.32,12.81 78.78,39.08 7.68,14.72 11.51,38.42 11.51,69.8l0 243.36 -53.78 0 0 -236.96c0,-46.11 -16.65,-69.17 -50.59,-69.17 -17.3,0 -32.03,5.13 -44.83,16.02 -15.37,12.81 -23.06,30.73 -23.06,53.15l0 236.96 -53.8 0z"/>
   </g>
   <g>
    <path class="fil5" d="M9542.79 13030.97c0,75.04 -21.2,132.84 -63.59,173.41 -42.4,40.57 -105.08,60.85 -188.05,60.85 -90.29,0 -154.95,-19.98 -194,-59.94 -39.04,-39.95 -58.56,-97.76 -58.56,-173.4l0 -399.89 132.69 0 0 380.67c0,54.91 8.84,95.17 26.53,120.79 17.69,25.62 48.81,38.43 93.34,38.43 42.09,0 72.29,-13.26 90.59,-39.8 18.3,-26.54 27.45,-66.65 27.45,-120.33l0 -379.76 133.6 0 0 398.97zm635.42 223.28l-129.03 0 0 -281.84c0,-40.87 -7.47,-70.31 -22.41,-88.31 -14.95,-17.99 -39.2,-26.99 -72.75,-26.99 -17.69,0 -36.91,1.98 -57.65,5.95 -20.74,3.96 -35.08,8.08 -43.01,12.35l0 378.84 -128.11 0 0 -441.06c76.87,-25.63 154.04,-38.44 231.51,-38.44 71.38,0 126.13,12.81 164.26,38.44 38.13,25.62 57.19,64.05 57.19,115.3l0 325.76zm305.08 -552.7l-131.77 0 0 -93.34 131.77 0 0 93.34zm-1.83 552.7l-128.11 0 0 -468.52 128.11 0 0 468.52zm620.78 -468.52l-161.05 468.52 -171.12 0 -161.05 -468.52 133.6 0 116.21 384.33 114.38 -384.33 129.03 0zm548.48 257.14l-327.59 0c1.22,49.41 13.57,86.02 37.06,109.81 23.49,23.79 61.77,35.68 114.84,35.68 29.89,0 59.78,-4.72 89.68,-14.18 29.89,-9.45 50.63,-18.45 62.22,-26.99l0 82.35c-12.2,7.32 -37.06,15.1 -74.58,23.34 -37.51,8.23 -78.24,12.35 -122.16,12.35 -87.24,0 -148.24,-20.89 -183.01,-62.68 -34.78,-41.79 -52.16,-106.61 -52.16,-194.45 0,-74.43 20.43,-131.93 61.31,-172.49 40.87,-40.57 97,-60.86 168.37,-60.86 70.77,0 126.13,20.59 166.09,61.77 39.95,41.18 59.93,98.37 59.93,171.58l0 34.77zm-123.53 -67.72c-1.22,-39.04 -10.52,-70 -27.91,-92.88 -17.39,-22.87 -42.25,-34.31 -74.58,-34.31 -65.88,0 -99.74,42.4 -101.57,127.19l204.06 0zm566.79 -113.47c-16.47,-3.66 -33.25,-5.49 -50.33,-5.49 -10.98,0 -23.03,0.92 -36.14,2.75 -13.12,1.83 -23.95,3.66 -32.49,5.49 -8.54,1.83 -17.84,3.97 -27.91,6.41 -10.06,2.44 -15.4,3.66 -16.01,3.66l0 379.75 -128.11 0 0 -441.98c17.08,-6.71 48.04,-14.64 92.88,-23.79 44.84,-9.15 88,-13.73 129.48,-13.73 34.77,0 57.65,1.83 68.63,5.49l0 81.44zm499.99 251.65c0,47.58 -17.85,84.8 -53.53,111.64 -35.69,26.84 -88,40.26 -156.94,40.26 -45.14,0 -85.86,-4.12 -122.16,-12.35 -36.3,-8.24 -60.55,-16.02 -72.75,-23.34l0 -81.44c53.69,26.84 105.24,40.26 154.65,40.26 38.43,0 67.71,-5.33 87.85,-16.01 20.13,-10.67 30.19,-24.25 30.19,-40.72 0,-15.25 -9.45,-28.52 -28.36,-39.8 -18.91,-11.29 -41.79,-21.2 -68.63,-29.74 -26.85,-8.55 -53.69,-18.15 -80.53,-28.83 -26.84,-10.68 -49.72,-26.08 -68.63,-46.21 -18.91,-20.13 -28.37,-43.92 -28.37,-71.38 0,-43.92 18.91,-78.39 56.74,-103.4 37.82,-25.01 86.62,-37.52 146.41,-37.52 73.81,0 135.43,11.59 184.84,34.78l0 80.52c-51.85,-25.01 -100.66,-37.52 -146.41,-37.52 -74.42,0 -111.64,17.39 -111.64,52.16 0,16.47 14.49,31.57 43.47,45.3 28.98,13.73 60.7,25.47 95.17,35.23 34.46,9.76 66.19,25.77 95.16,48.04 28.98,22.27 43.47,48.96 43.47,80.07zm281.29 -411.78l-131.77 0 0 -93.34 131.77 0 0 93.34zm-1.83 552.7l-128.11 0 0 -468.52 128.11 0 0 468.52zm630.84 -28.37c-71.98,26.23 -149.46,39.35 -232.42,39.35 -85.41,0 -147.33,-20.13 -185.76,-60.39 -38.44,-40.27 -57.65,-105.85 -57.65,-196.74 0,-75.04 19.21,-132.69 57.65,-172.95 38.43,-40.27 87.84,-60.4 148.24,-60.4 57.34,0 104.32,9.15 140.92,27.46l0 -209.56 129.02 0 0 633.23zm-129.02 -59.48l0 -288.24c-3.66,-0.61 -12.35,-3.21 -26.08,-7.78 -13.73,-4.58 -26.69,-8.24 -38.89,-10.98 -12.2,-2.75 -24.4,-4.12 -36.6,-4.12 -74.43,0 -111.64,50.94 -111.64,152.82 0,61.61 8.84,106.6 26.54,134.97 17.69,28.37 45.75,42.55 84.18,42.55 38.43,0 72.6,-6.41 102.49,-19.22zm736.99 67.72c-17.08,6.71 -47.28,13.57 -90.59,20.59 -43.31,7.01 -94.56,10.52 -153.73,10.52 -145.8,0 -218.7,-50.94 -218.7,-152.82 0,-48.8 21.81,-86.47 65.42,-113.01 43.62,-26.53 98.07,-39.8 163.34,-39.8l108.9 0 0 -29.28c0,-53.08 -43.93,-79.62 -131.77,-79.62 -47.59,0 -103.4,12.51 -167.46,37.52l0 -78.69c1.22,0 7.32,-1.68 18.3,-5.04 10.98,-3.35 22.27,-6.4 33.86,-9.15 11.59,-2.74 25.47,-5.79 41.64,-9.15 16.16,-3.35 33.7,-6.1 52.61,-8.23 18.91,-2.14 37.52,-3.21 55.82,-3.21 77.48,0 133.91,12.51 169.29,37.52 35.38,25.01 53.07,66.19 53.07,123.54l0 298.31zm-125.36 -55.82l0 -152.82 -66.8 0c-47.59,0 -83.27,6.41 -107.07,19.22 -23.79,12.81 -35.68,34.77 -35.68,65.88 0,26.85 9.15,47.28 27.45,61.31 18.3,14.03 42.7,21.05 73.2,21.05 46.98,0 83.28,-4.88 108.9,-14.64zm752.54 47.58c-71.98,26.23 -149.46,39.35 -232.42,39.35 -85.41,0 -147.33,-20.13 -185.76,-60.39 -38.44,-40.27 -57.65,-105.85 -57.65,-196.74 0,-75.04 19.21,-132.69 57.65,-172.95 38.43,-40.27 87.84,-60.4 148.24,-60.4 57.34,0 104.32,9.15 140.92,27.46l0 -209.56 129.02 0 0 633.23zm-129.02 -59.48l0 -288.24c-3.66,-0.61 -12.35,-3.21 -26.08,-7.78 -13.73,-4.58 -26.69,-8.24 -38.89,-10.98 -12.2,-2.75 -24.4,-4.12 -36.6,-4.12 -74.43,0 -111.64,50.94 -111.64,152.82 0,61.61 8.84,106.6 26.54,134.97 17.69,28.37 45.75,42.55 84.18,42.55 38.43,0 72.6,-6.41 102.49,-19.22zm743.4 87.85l-133.6 0 0 -622.25 133.6 0 0 622.25zm640.91 0l-129.03 0 0 -281.84c0,-40.87 -7.47,-70.31 -22.41,-88.31 -14.95,-17.99 -39.2,-26.99 -72.75,-26.99 -17.69,0 -36.91,1.98 -57.65,5.95 -20.74,3.96 -35.08,8.08 -43.01,12.35l0 378.84 -128.11 0 0 -441.06c76.87,-25.63 154.04,-38.44 231.51,-38.44 71.38,0 126.13,12.81 164.26,38.44 38.13,25.62 57.19,64.05 57.19,115.3l0 325.76zm437.76 -0.92c-30.5,7.33 -65.27,10.99 -104.31,10.99 -56.13,0 -96.54,-10.53 -121.25,-31.57 -24.71,-21.05 -37.06,-52.32 -37.06,-93.8l0 -463.02 128.11 0 0 109.8 123.53 0 0 81.45 -123.53 0 0 248.89c0,45.76 23.49,68.63 70.46,68.63 18.3,0 39.65,-4.27 64.05,-12.81l0 81.44zm579.6 -210.46l-327.59 0c1.22,49.41 13.57,86.02 37.06,109.81 23.49,23.79 61.77,35.68 114.84,35.68 29.89,0 59.78,-4.72 89.68,-14.18 29.89,-9.45 50.63,-18.45 62.22,-26.99l0 82.35c-12.2,7.32 -37.06,15.1 -74.58,23.34 -37.51,8.23 -78.24,12.35 -122.16,12.35 -87.24,0 -148.24,-20.89 -183.01,-62.68 -34.78,-41.79 -52.16,-106.61 -52.16,-194.45 0,-74.43 20.43,-131.93 61.31,-172.49 40.87,-40.57 97,-60.86 168.37,-60.86 70.77,0 126.13,20.59 166.09,61.77 39.95,41.18 59.93,98.37 59.93,171.58l0 34.77zm-123.53 -67.72c-1.22,-39.04 -10.52,-70 -27.91,-92.88 -17.39,-22.87 -42.25,-34.31 -74.58,-34.31 -65.88,0 -99.74,42.4 -101.57,127.19l204.06 0zm566.79 -113.47c-16.47,-3.66 -33.25,-5.49 -50.33,-5.49 -10.98,0 -23.03,0.92 -36.14,2.75 -13.12,1.83 -23.95,3.66 -32.49,5.49 -8.54,1.83 -17.84,3.97 -27.91,6.41 -10.06,2.44 -15.4,3.66 -16.01,3.66l0 379.75 -128.11 0 0 -441.98c17.08,-6.71 48.04,-14.64 92.88,-23.79 44.84,-9.15 88,-13.73 129.48,-13.73 34.77,0 57.65,1.83 68.63,5.49l0 81.44zm586.01 392.57l-129.03 0 0 -281.84c0,-40.87 -7.47,-70.31 -22.41,-88.31 -14.95,-17.99 -39.2,-26.99 -72.75,-26.99 -17.69,0 -36.91,1.98 -57.65,5.95 -20.74,3.96 -35.08,8.08 -43.01,12.35l0 378.84 -128.11 0 0 -441.06c76.87,-25.63 154.04,-38.44 231.51,-38.44 71.38,0 126.13,12.81 164.26,38.44 38.13,25.62 57.19,64.05 57.19,115.3l0 325.76zm608.88 -20.13c-17.08,6.71 -47.28,13.57 -90.59,20.59 -43.31,7.01 -94.56,10.52 -153.73,10.52 -145.8,0 -218.7,-50.94 -218.7,-152.82 0,-48.8 21.81,-86.47 65.42,-113.01 43.62,-26.53 98.07,-39.8 163.34,-39.8l108.9 0 0 -29.28c0,-53.08 -43.93,-79.62 -131.77,-79.62 -47.59,0 -103.4,12.51 -167.46,37.52l0 -78.69c1.22,0 7.32,-1.68 18.3,-5.04 10.98,-3.35 22.27,-6.4 33.86,-9.15 11.59,-2.74 25.47,-5.79 41.64,-9.15 16.16,-3.35 33.7,-6.1 52.61,-8.23 18.91,-2.14 37.52,-3.21 55.82,-3.21 77.48,0 133.91,12.51 169.29,37.52 35.38,25.01 53.07,66.19 53.07,123.54l0 298.31zm-125.36 -55.82l0 -152.82 -66.8 0c-47.59,0 -83.27,6.41 -107.07,19.22 -23.79,12.81 -35.68,34.77 -35.68,65.88 0,26.85 9.15,47.28 27.45,61.31 18.3,14.03 42.7,21.05 73.2,21.05 46.98,0 83.28,-4.88 108.9,-14.64zm661.04 51.24c-10.37,7.32 -31.42,15.1 -63.14,23.34 -31.72,8.23 -65.89,12.35 -102.49,12.35 -78.09,0 -134.06,-20.89 -167.92,-62.68 -33.85,-41.79 -50.78,-106.61 -50.78,-194.45 0,-79.92 20.13,-138.79 60.39,-176.61 40.27,-37.83 93.64,-56.74 160.14,-56.74 39.65,0 73.82,4.12 102.49,12.36 28.67,8.23 47.58,16.01 56.73,23.33l0 82.36c-37.21,-23.79 -75.95,-35.69 -116.21,-35.69 -87.24,0 -130.86,50.63 -130.86,151.9 0,62.84 10.98,107.67 32.95,134.52 21.96,26.84 54.6,40.26 97.91,40.26 21.35,0 45.14,-4.58 71.37,-13.73 26.24,-9.15 42.71,-17.08 49.42,-23.79l0 83.27zm275.8 -527.99l-131.77 0 0 -93.34 131.77 0 0 93.34zm-1.83 552.7l-128.11 0 0 -468.52 128.11 0 0 468.52zm649.15 -246.15c0,94.55 -20.14,161.05 -60.4,199.48 -40.26,38.43 -102.49,57.65 -186.67,57.65 -92.73,0 -157.09,-20.28 -193.08,-60.85 -36,-40.57 -53.99,-106 -53.99,-196.28 0,-155.57 82.35,-233.35 247.07,-233.35 82.96,0 144.88,18.46 185.76,55.37 40.87,36.9 61.31,96.23 61.31,177.98zm-133.6 0c0,-54.3 -8.85,-93.34 -26.54,-117.13 -17.69,-23.79 -46.67,-35.69 -86.93,-35.69 -40.88,0 -70.16,12.05 -87.85,36.14 -17.69,24.1 -26.54,62.99 -26.54,116.68 0,65.27 8.85,111.18 26.54,137.71 17.69,26.54 46.97,39.81 87.85,39.81 39.65,0 68.47,-13.57 86.47,-40.72 18,-27.15 27,-72.75 27,-136.8zm741.56 246.15l-129.03 0 0 -281.84c0,-40.87 -7.47,-70.31 -22.41,-88.31 -14.95,-17.99 -39.2,-26.99 -72.75,-26.99 -17.69,0 -36.91,1.98 -57.65,5.95 -20.74,3.96 -35.08,8.08 -43.01,12.35l0 378.84 -128.11 0 0 -441.06c76.87,-25.63 154.04,-38.44 231.51,-38.44 71.38,0 126.13,12.81 164.26,38.44 38.13,25.62 57.19,64.05 57.19,115.3l0 325.76zm608.88 -20.13c-17.08,6.71 -47.28,13.57 -90.59,20.59 -43.31,7.01 -94.56,10.52 -153.73,10.52 -145.8,0 -218.7,-50.94 -218.7,-152.82 0,-48.8 21.81,-86.47 65.42,-113.01 43.62,-26.53 98.07,-39.8 163.34,-39.8l108.9 0 0 -29.28c0,-53.08 -43.93,-79.62 -131.77,-79.62 -47.59,0 -103.4,12.51 -167.46,37.52l0 -78.69c1.22,0 7.32,-1.68 18.3,-5.04 10.98,-3.35 22.27,-6.4 33.86,-9.15 11.59,-2.74 25.47,-5.79 41.64,-9.15 16.16,-3.35 33.7,-6.1 52.61,-8.23 18.91,-2.14 37.52,-3.21 55.82,-3.21 77.48,0 133.91,12.51 169.29,37.52 35.38,25.01 53.07,66.19 53.07,123.54l0 298.31zm-125.36 -55.82l0 -152.82 -66.8 0c-47.59,0 -83.27,6.41 -107.07,19.22 -23.79,12.81 -35.68,34.77 -35.68,65.88 0,26.85 9.15,47.28 27.45,61.31 18.3,14.03 42.7,21.05 73.2,21.05 46.98,0 83.28,-4.88 108.9,-14.64zm424.95 75.95l-128.11 0 0 -661.6 128.11 0 0 661.6zm-11225.26 1010.24c-71.98,26.23 -149.46,39.35 -232.42,39.35 -85.41,0 -147.33,-20.13 -185.76,-60.39 -38.44,-40.27 -57.65,-105.85 -57.65,-196.74 0,-75.04 19.21,-132.69 57.65,-172.95 38.43,-40.27 87.84,-60.4 148.24,-60.4 57.34,0 104.32,9.15 140.92,27.46l0 -209.56 129.02 0 0 633.23zm-129.02 -59.48l0 -288.24c-3.66,-0.61 -12.35,-3.21 -26.08,-7.78 -13.73,-4.58 -26.69,-8.24 -38.89,-10.98 -12.2,-2.75 -24.4,-4.12 -36.6,-4.12 -74.43,0 -111.64,50.94 -111.64,152.82 0,61.61 8.84,106.6 26.54,134.97 17.69,28.37 45.75,42.55 84.18,42.55 38.43,0 72.6,-6.41 102.49,-19.22zm738.82 -123.53l-327.59 0c1.22,49.41 13.57,86.02 37.06,109.81 23.49,23.79 61.77,35.68 114.84,35.68 29.89,0 59.78,-4.72 89.68,-14.18 29.89,-9.45 50.63,-18.45 62.22,-26.99l0 82.35c-12.2,7.32 -37.06,15.1 -74.58,23.34 -37.51,8.23 -78.24,12.35 -122.16,12.35 -87.24,0 -148.24,-20.89 -183.01,-62.68 -34.78,-41.79 -52.16,-106.61 -52.16,-194.45 0,-74.43 20.43,-131.93 61.31,-172.49 40.87,-40.57 97,-60.86 168.37,-60.86 70.77,0 126.13,20.59 166.09,61.77 39.95,41.18 59.93,98.37 59.93,171.58l0 34.77zm-123.53 -67.72c-1.22,-39.04 -10.52,-70 -27.91,-92.88 -17.39,-22.87 -42.25,-34.31 -74.58,-34.31 -65.88,0 -99.74,42.4 -101.57,127.19l204.06 0zm403.91 279.1l-128.11 0 0 -661.6 128.11 0 0 661.6zm909.03 -527.08l-177.53 0 0 527.08 -133.6 0 0 -527.08 -177.52 0 0 -95.17 488.65 0 0 95.17zm309.65 134.51c-16.47,-3.66 -33.25,-5.49 -50.33,-5.49 -10.98,0 -23.03,0.92 -36.14,2.75 -13.12,1.83 -23.95,3.66 -32.49,5.49 -8.54,1.83 -17.84,3.97 -27.91,6.41 -10.06,2.44 -15.4,3.66 -16.01,3.66l0 379.75 -128.11 0 0 -441.98c17.08,-6.71 48.04,-14.64 92.88,-23.79 44.84,-9.15 88,-13.73 129.48,-13.73 34.77,0 57.65,1.83 68.63,5.49l0 81.44zm478.94 -269.03l-97 126.28 -92.42 0 78.7 -126.28 110.72 0zm114.39 415.45c0,94.55 -20.14,161.05 -60.4,199.48 -40.26,38.43 -102.49,57.65 -186.67,57.65 -92.73,0 -157.09,-20.28 -193.08,-60.85 -36,-40.57 -53.99,-106 -53.99,-196.28 0,-155.57 82.35,-233.35 247.07,-233.35 82.96,0 144.88,18.46 185.76,55.37 40.87,36.9 61.31,96.23 61.31,177.98zm-133.6 0c0,-54.3 -8.85,-93.34 -26.54,-117.13 -17.69,-23.79 -46.67,-35.69 -86.93,-35.69 -40.88,0 -70.16,12.05 -87.85,36.14 -17.69,24.1 -26.54,62.99 -26.54,116.68 0,65.27 8.85,111.18 26.54,137.71 17.69,26.54 46.97,39.81 87.85,39.81 39.65,0 68.47,-13.57 86.47,-40.72 18,-27.15 27,-72.75 27,-136.8zm763.52 0c0,90.28 -18.76,155.71 -56.28,196.28 -37.51,40.57 -87.38,60.85 -149.61,60.85 -59.78,0 -106.76,-10.37 -140.92,-31.11l0 215.95 -128.11 0 0 -636.88c15.25,-7.93 46.06,-16.32 92.42,-25.17 46.37,-8.84 92.12,-13.27 137.26,-13.27 83.58,0 145.35,19.37 185.3,58.11 39.96,38.74 59.94,97.15 59.94,175.24zm-132.68 0c0,-101.88 -37.22,-152.82 -111.64,-152.82 -37.22,0 -71.38,6.71 -102.49,20.13l0 288.25c8.54,5.49 23.03,10.52 43.47,15.1 20.43,4.57 39.8,6.86 58.1,6.86 39.05,0 67.56,-14.03 85.56,-42.09 18,-28.07 27,-73.21 27,-135.43zm417.63 -306.55l-131.77 0 0 -93.34 131.77 0 0 93.34zm-1.83 552.7l-128.11 0 0 -468.52 128.11 0 0 468.52zm539.34 -24.71c-10.37,7.32 -31.42,15.1 -63.14,23.34 -31.72,8.23 -65.89,12.35 -102.49,12.35 -78.09,0 -134.06,-20.89 -167.92,-62.68 -33.85,-41.79 -50.78,-106.61 -50.78,-194.45 0,-79.92 20.13,-138.79 60.39,-176.61 40.27,-37.83 93.64,-56.74 160.14,-56.74 39.65,0 73.82,4.12 102.49,12.36 28.67,8.23 47.58,16.01 56.73,23.33l0 82.36c-37.21,-23.79 -75.95,-35.69 -116.21,-35.69 -87.24,0 -130.86,50.63 -130.86,151.9 0,62.84 10.98,107.67 32.95,134.52 21.96,26.84 54.6,40.26 97.91,40.26 21.35,0 45.14,-4.58 71.37,-13.73 26.24,-9.15 42.71,-17.08 49.42,-23.79l0 83.27zm619.87 -221.44c0,94.55 -20.14,161.05 -60.4,199.48 -40.26,38.43 -102.49,57.65 -186.67,57.65 -92.73,0 -157.09,-20.28 -193.08,-60.85 -36,-40.57 -53.99,-106 -53.99,-196.28 0,-155.57 82.35,-233.35 247.07,-233.35 82.96,0 144.88,18.46 185.76,55.37 40.87,36.9 61.31,96.23 61.31,177.98zm-133.6 0c0,-54.3 -8.85,-93.34 -26.54,-117.13 -17.69,-23.79 -46.67,-35.69 -86.93,-35.69 -40.88,0 -70.16,12.05 -87.85,36.14 -17.69,24.1 -26.54,62.99 -26.54,116.68 0,65.27 8.85,111.18 26.54,137.71 17.69,26.54 46.97,39.81 87.85,39.81 39.65,0 68.47,-13.57 86.47,-40.72 18,-27.15 27,-72.75 27,-136.8zm1112.17 246.15l-142.76 0 -150.07 -532.57 -151.9 532.57 -135.43 0 205.89 -622.25 170.2 0 204.07 622.25zm872.42 0l-129.02 0 0 -281.84c0,-39.65 -7.02,-68.78 -21.05,-87.39 -14.03,-18.61 -37.82,-27.91 -71.38,-27.91 -40.26,0 -73.51,6.1 -99.74,18.3 9.15,20.13 13.73,40.57 13.73,61.31l0 317.53 -129.03 0 0 -281.84c0,-38.43 -6.86,-67.26 -20.59,-86.48 -13.72,-19.21 -37.36,-28.82 -70.91,-28.82 -36.61,0 -67.11,6.1 -91.51,18.3l0 378.84 -128.11 0 0 -441.06c17.08,-6.71 47.13,-14.8 90.13,-24.25 43.01,-9.46 84.65,-14.19 124.91,-14.19 39.65,0 73.82,3.97 102.49,11.9 28.67,7.93 46.67,15.56 53.99,22.88 46.36,-23.19 105.54,-34.78 177.52,-34.78 68.33,0 118.5,14.49 150.53,43.47 32.03,28.98 48.04,65.73 48.04,110.27l0 325.76zm609.8 -211.38l-327.59 0c1.22,49.41 13.57,86.02 37.06,109.81 23.49,23.79 61.77,35.68 114.84,35.68 29.89,0 59.78,-4.72 89.68,-14.18 29.89,-9.45 50.63,-18.45 62.22,-26.99l0 82.35c-12.2,7.32 -37.06,15.1 -74.58,23.34 -37.51,8.23 -78.24,12.35 -122.16,12.35 -87.24,0 -148.24,-20.89 -183.01,-62.68 -34.78,-41.79 -52.16,-106.61 -52.16,-194.45 0,-74.43 20.43,-131.93 61.31,-172.49 40.87,-40.57 97,-60.86 168.37,-60.86 70.77,0 126.13,20.59 166.09,61.77 39.95,41.18 59.93,98.37 59.93,171.58l0 34.77zm-123.53 -67.72c-1.22,-39.04 -10.52,-70 -27.91,-92.88 -17.39,-22.87 -42.25,-34.31 -74.58,-34.31 -65.88,0 -99.74,42.4 -101.57,127.19l204.06 0zm566.79 -113.47c-16.47,-3.66 -33.25,-5.49 -50.33,-5.49 -10.98,0 -23.03,0.92 -36.14,2.75 -13.12,1.83 -23.95,3.66 -32.49,5.49 -8.54,1.83 -17.84,3.97 -27.91,6.41 -10.06,2.44 -15.4,3.66 -16.01,3.66l0 379.75 -128.11 0 0 -441.98c17.08,-6.71 48.04,-14.64 92.88,-23.79 44.84,-9.15 88,-13.73 129.48,-13.73 34.77,0 57.65,1.83 68.63,5.49l0 81.44zm262.99 -160.13l-131.77 0 0 -93.34 131.77 0 0 93.34zm-1.83 552.7l-128.11 0 0 -468.52 128.11 0 0 468.52zm539.34 -24.71c-10.37,7.32 -31.42,15.1 -63.14,23.34 -31.72,8.23 -65.89,12.35 -102.49,12.35 -78.09,0 -134.06,-20.89 -167.92,-62.68 -33.85,-41.79 -50.78,-106.61 -50.78,-194.45 0,-79.92 20.13,-138.79 60.39,-176.61 40.27,-37.83 93.64,-56.74 160.14,-56.74 39.65,0 73.82,4.12 102.49,12.36 28.67,8.23 47.58,16.01 56.73,23.33l0 82.36c-37.21,-23.79 -75.95,-35.69 -116.21,-35.69 -87.24,0 -130.86,50.63 -130.86,151.9 0,62.84 10.98,107.67 32.95,134.52 21.96,26.84 54.6,40.26 97.91,40.26 21.35,0 45.14,-4.58 71.37,-13.73 26.24,-9.15 42.71,-17.08 49.42,-23.79l0 83.27zm579.6 4.58c-17.08,6.71 -47.28,13.57 -90.59,20.59 -43.31,7.01 -94.56,10.52 -153.73,10.52 -145.8,0 -218.7,-50.94 -218.7,-152.82 0,-48.8 21.81,-86.47 65.42,-113.01 43.62,-26.53 98.07,-39.8 163.34,-39.8l108.9 0 0 -29.28c0,-53.08 -43.93,-79.62 -131.77,-79.62 -47.59,0 -103.4,12.51 -167.46,37.52l0 -78.69c1.22,0 7.32,-1.68 18.3,-5.04 10.98,-3.35 22.27,-6.4 33.86,-9.15 11.59,-2.74 25.47,-5.79 41.64,-9.15 16.16,-3.35 33.7,-6.1 52.61,-8.23 18.91,-2.14 37.52,-3.21 55.82,-3.21 77.48,0 133.91,12.51 169.29,37.52 35.38,25.01 53.07,66.19 53.07,123.54l0 298.31zm-125.36 -55.82l0 -152.82 -66.8 0c-47.59,0 -83.27,6.41 -107.07,19.22 -23.79,12.81 -35.68,34.77 -35.68,65.88 0,26.85 9.15,47.28 27.45,61.31 18.3,14.03 42.7,21.05 73.2,21.05 46.98,0 83.28,-4.88 108.9,-14.64zm749.8 75.95l-129.03 0 0 -281.84c0,-40.87 -7.47,-70.31 -22.41,-88.31 -14.95,-17.99 -39.2,-26.99 -72.75,-26.99 -17.69,0 -36.91,1.98 -57.65,5.95 -20.74,3.96 -35.08,8.08 -43.01,12.35l0 378.84 -128.11 0 0 -441.06c76.87,-25.63 154.04,-38.44 231.51,-38.44 71.38,0 126.13,12.81 164.26,38.44 38.13,25.62 57.19,64.05 57.19,115.3l0 325.76zm649.15 -246.15c0,94.55 -20.14,161.05 -60.4,199.48 -40.26,38.43 -102.49,57.65 -186.67,57.65 -92.73,0 -157.09,-20.28 -193.08,-60.85 -36,-40.57 -53.99,-106 -53.99,-196.28 0,-155.57 82.35,-233.35 247.07,-233.35 82.96,0 144.88,18.46 185.76,55.37 40.87,36.9 61.31,96.23 61.31,177.98zm-133.6 0c0,-54.3 -8.85,-93.34 -26.54,-117.13 -17.69,-23.79 -46.67,-35.69 -86.93,-35.69 -40.88,0 -70.16,12.05 -87.85,36.14 -17.69,24.1 -26.54,62.99 -26.54,116.68 0,65.27 8.85,111.18 26.54,137.71 17.69,26.54 46.97,39.81 87.85,39.81 39.65,0 68.47,-13.57 86.47,-40.72 18,-27.15 27,-72.75 27,-136.8z"/>
    <polygon class="fil6" points="15724.45,14012.35 15966.56,14012.35 15966.56,14081.3 15724.45,14081.3 "/>
   </g>
  </g>
 </g>
</svg>
